<?xml version="1.0" standalone="no"?>
<!DOCTYPE svg PUBLIC "-//W3C//DTD SVG 20010904//EN"
 "http://www.w3.org/TR/2001/REC-SVG-20010904/DTD/svg10.dtd">
<svg version="1.0" xmlns="http://www.w3.org/2000/svg"
 width="175.000000pt" height="166.000000pt" viewBox="0 0 175.000000 166.000000"
 preserveAspectRatio="xMidYMid meet">

<g transform="translate(0.000000,166.000000) scale(0.100000,-0.100000)"
fill="#000000" stroke="none">
<path d="M540 820 c-187 -374 -340 -682 -340 -685 0 -3 308 -5 685 -5 377 0
685 2 685 5 0 10 -680 1365 -685 1365 -3 0 -158 -306 -345 -680z m545 40 l195
-390 -265 0 -265 0 30 60 30 60 135 0 c74 0 135 3 134 8 0 4 -44 94 -97 200
l-97 192 -158 -315 -157 -315 383 0 383 0 27 -55 c15 -31 27 -58 27 -60 0 -3
-227 -5 -505 -5 -278 0 -505 2 -505 5 0 10 500 1005 505 1005 3 0 93 -175 200
-390z"/>
</g>
</svg>
